# Aspose.3D Wavefront OBJ Exporter
# Copyright 2004-2022 Aspose Pty Ltd.
# File created: 01/15/2023 19:31:16

mtllib material.lib

#
# object Enderman
#

v -4 5 1.99999948344174096
v 4 5 1.99999948344174096
v -4 5 -2.00000051655825883
v 4 5 -2.00000051655825883
v -4 17 1.99999948344174176
v 4 17 1.99999948344174176
v -4 17 -2.00000051655825838
v 4 17 -2.00000051655825838
v -4 17 3.99999996027890032
v 4 17 3.99999996027890032
v -4 17 -4.00000003972110018
v 4 17 -4.00000003972110018
v -4 25 3.99999996027890032
v 4 25 3.99999996027890032
v -4 25 -4.00000003972109929
v 4 25 -4.00000003972109929
v -8.61086654663085936 -12.79868698120117184 -1.00000242390689297
v -6.61847686767578128 -12.97299575805664064 -1.00000242390689297
v -5.99619483947753904 17.08715534210205078 -0.99999753632601936
v -4.00380516052246093 16.91284465789794928 -0.99999753632601936
v -8.61086654663085936 -12.79868698120117184 0.9999975164884624
v -6.61847686767578128 -12.97299575805664064 0.9999975164884624
v -5.99619483947753904 17.08715534210205078 1.00000234446469082
v -4.00380516052246093 16.91284465789794928 1.00000234446469082
v -3 -25 -1.00000242390689364
v -1 -25 -1.00000242390689364
v -3 5 -0.99999753632602016
v -1 5 -0.99999753632602016
v -3 -25 0.9999975164884616
v -1 -25 0.9999975164884616
v -3 5 1.00000234446469016
v -1 5 1.00000234446469016
v 3 -25 -1.00000242390689364
v 1 -25 -1.00000242390689364
v 3 5 -0.99999753632602016
v 1 5 -0.99999753632602016
v 3 -25 0.9999975164884616
v 1 -25 0.9999975164884616
v 3 5 1.00000234446469016
v 1 5 1.00000234446469016
v 8.61086654663085936 -12.79868698120117184 -1.00000242390689297
v 6.61847686767578128 -12.97299575805664064 -1.00000242390689297
v 5.99619483947753904 17.08715534210205078 -0.99999753632601936
v 4.00380516052246093 16.91284465789794928 -0.99999753632601936
v 8.61086654663085936 -12.79868698120117184 0.9999975164884624
v 6.61847686767578128 -12.97299575805664064 0.9999975164884624
v 5.99619483947753904 17.08715534210205078 1.00000234446469082
v 4.00380516052246093 16.91284465789794928 1.00000234446469082
# 48 vertices

vn 0 -1 -2.220446049250313E-16
vn 0 -1 -2.220446049250313E-16
vn 0 -1 -2.220446049250313E-16
vn 0 -1 -2.220446049250313E-16
vn 0 1 2.220446049250313E-16
vn 0 1 2.220446049250313E-16
vn 0 1 2.220446049250313E-16
vn 0 1 2.220446049250313E-16
vn 0 -2.220446049250313E-16 1
vn 0 -2.220446049250313E-16 1
vn 0 -2.220446049250313E-16 1
vn 0 -2.220446049250313E-16 1
vn 1 0 0
vn 1 0 0
vn 1 0 0
vn 1 0 0
vn 0 2.220446049250313E-16 -1
vn 0 2.220446049250313E-16 -1
vn 0 2.220446049250313E-16 -1
vn 0 2.220446049250313E-16 -1
vn -1 0 0
vn -1 0 0
vn -1 0 0
vn -1 0 0
vn 0 -1 -2.220446049250313E-16
vn 0 -1 -2.220446049250313E-16
vn 0 -1 -2.220446049250313E-16
vn 0 -1 -2.220446049250313E-16
vn 0 1 2.220446049250313E-16
vn 0 1 2.220446049250313E-16
vn 0 1 2.220446049250313E-16
vn 0 1 2.220446049250313E-16
vn 0 -2.220446049250313E-16 1
vn 0 -2.220446049250313E-16 1
vn 0 -2.220446049250313E-16 1
vn 0 -2.220446049250313E-16 1
vn 1 0 0
vn 1 0 0
vn 1 0 0
vn 1 0 0
vn 0 2.220446049250313E-16 -1
vn 0 2.220446049250313E-16 -1
vn 0 2.220446049250313E-16 -1
vn 0 2.220446049250313E-16 -1
vn -1 0 0
vn -1 0 0
vn -1 0 0
vn -1 0 0
vn 1.4199213360654994E-08 1.6229941501855194E-07 -1
vn 1.4199213360654994E-08 1.6229941501855194E-07 -1
vn 1.4199211584298155E-08 1.6229941490752964E-07 -0.9999999403953552
vn 1.4199211584298155E-08 1.6229941501855194E-07 -1
vn -1.402607630041075E-08 -1.6032016980638275E-07 1
vn -1.402607630041075E-08 -1.6032016980638275E-07 1
vn -1.402607541223233E-08 -1.6032016969536045E-07 0.9999999403953552
vn -1.402607630041075E-08 -1.6032016980638275E-07 1
vn -0.08715438842773438 -0.99619483947753904 -2.220446049250313E-16
vn -0.08715438842773438 -0.99619483947753904 -2.220446049250313E-16
vn -0.08715438842773438 -0.99619483947753904 -2.220446049250313E-16
vn -0.08715438842773438 -0.99619483947753904 -2.220446049250313E-16
vn 0.99619477987289424 -0.08715572953224182 -1.3877787807814457E-17
vn 0.99619472026824944 -0.08715572208166122 -1.3877787807814457E-17
vn 0.99619477987289424 -0.08715572953224182 -1.3877787807814457E-17
vn 0.99619472026824944 -0.08715572208166122 -1.3877787807814457E-17
vn 0.08715533465147018 0.99619472026824944 2.220446049250313E-16
vn 0.08715533465147018 0.99619472026824944 2.220446049250313E-16
vn 0.08715533465147018 0.99619472026824944 2.220446049250313E-16
vn 0.08715533465147018 0.99619472026824944 2.220446049250313E-16
vn -0.99619472026824944 0.08715572208166122 1.3877787807814457E-17
vn -0.99619477987289424 0.08715572953224182 1.3877787807814457E-17
vn -0.99619472026824944 0.08715572208166122 1.3877787807814457E-17
vn -0.99619477987289424 0.08715572953224182 1.3877787807814457E-17
vn 0 1.6291937776635734E-07 -1
vn 0 1.6291937776635734E-07 -1
vn 0 1.6291937776635734E-07 -1
vn 0 1.6291937776635734E-07 -1
vn 0 -1.6093254395777024E-07 1
vn 0 -1.6093254395777024E-07 1
vn 0 -1.6093254395777024E-07 1
vn 0 -1.6093254395777024E-07 1
vn 0 -1 -2.220446049250313E-16
vn 0 -1 -2.220446049250313E-16
vn 0 -1 -2.220446049250313E-16
vn 0 -1 -2.220446049250313E-16
vn 1 0 0
vn 0.9999999403953552 0 0
vn 1 0 0
vn 0.9999999403953552 0 0
vn 0 1 2.220446049250313E-16
vn 0 1 2.220446049250313E-16
vn 0 1 2.220446049250313E-16
vn 0 1 2.220446049250313E-16
vn -0.9999999403953552 0 0
vn -1 0 0
vn -0.9999999403953552 0 0
vn -1 0 0
vn 0 1.6291937776635734E-07 -1
vn 0 1.6291937776635734E-07 -1
vn 0 1.6291937776635734E-07 -1
vn 0 1.6291937776635734E-07 -1
vn 0 -1.6093254395777024E-07 1
vn 0 -1.6093254395777024E-07 1
vn 0 -1.6093254395777024E-07 1
vn 0 -1.6093254395777024E-07 1
vn 0 -1 -2.220446049250313E-16
vn 0 -1 -2.220446049250313E-16
vn 0 -1 -2.220446049250313E-16
vn 0 -1 -2.220446049250313E-16
vn -1 0 0
vn -0.9999999403953552 0 0
vn -1 0 0
vn -0.9999999403953552 0 0
vn 0 1 2.220446049250313E-16
vn 0 1 2.220446049250313E-16
vn 0 1 2.220446049250313E-16
vn 0 1 2.220446049250313E-16
vn 0.9999999403953552 0 0
vn 1 0 0
vn 0.9999999403953552 0 0
vn 1 0 0
vn -1.4199244446899684E-08 1.6229942922940666E-07 -1
vn -1.4199244446899684E-08 1.6229942922940666E-07 -1
vn -1.4199243558721264E-08 1.6229941490752964E-07 -0.9999999403953552
vn -1.4199244446899684E-08 1.6229942922940666E-07 -1
vn 1.4026074524053911E-08 -1.6032016980638275E-07 1
vn 1.4026074524053911E-08 -1.6032016980638275E-07 1
vn 1.4026074524053911E-08 -1.6032015548450573E-07 0.9999999403953552
vn 1.4026074524053911E-08 -1.6032015559552804E-07 1
vn 0.08715438842773438 -0.99619483947753904 -2.220446049250313E-16
vn 0.08715438842773438 -0.99619483947753904 -2.220446049250313E-16
vn 0.08715438842773438 -0.99619483947753904 -2.220446049250313E-16
vn 0.08715438842773438 -0.99619483947753904 -2.220446049250313E-16
vn -0.99619477987289424 -0.08715573698282242 -1.3877787807814457E-17
vn -0.99619472026824944 -0.08715573698282242 -1.3877787807814457E-17
vn -0.99619477987289424 -0.08715573698282242 -1.3877787807814457E-17
vn -0.99619472026824944 -0.08715573698282242 -1.3877787807814457E-17
vn -0.08715533465147018 0.99619472026824944 2.220446049250313E-16
vn -0.08715533465147018 0.99619472026824944 2.220446049250313E-16
vn -0.08715533465147018 0.99619472026824944 2.220446049250313E-16
vn -0.08715533465147018 0.99619472026824944 2.220446049250313E-16
vn 0.99619472026824944 0.08715572208166122 1.3877787807814457E-17
vn 0.99619477987289424 0.08715572953224182 1.3877787807814457E-17
vn 0.99619472026824944 0.08715572208166122 1.3877787807814457E-17
vn 0.99619477987289424 0.08715572953224182 1.3877787807814457E-17
# 144 vertex normals

vt 0.6875 0.75 0
vt 0.6875 0.6875 0
vt 0.5625 0.6875 0
vt 0.5625 0.75 0
vt 0.8125 0.75 0
vt 0.5625 0.5 0
vt 0.875 0.6875 0
vt 0.75 0.6875 0
vt 0.6875 0.5 0
vt 0.6875 0.6875 0
vt 0.6875 0.75 0
vt 0.75 0.5 0
vt 0.6875 0.5 0
vt 0.875 0.5 0
vt 0.75 0.5 0
vt 0.81237518787384032 0.6875 0
vt 0.5 0.5 0
vt 0.5625 0.5 0
vt 0.6875 0.6875 0
vt 0.5625 0.6875 0
vt 0.5625 0.6875 0
vt 0.5 0.6875 0
vt 0.75 0.6875 0
vt 0.6875 0.6875 0
vt 0.375 1 0
vt 0.25 1 0
vt 0.125 0.875 0
vt 0.125 1 0
vt 0.375 0.875 0
vt 0.125 0.75 0
vt 0.5 0.875 0
vt 0.375 0.875 0
vt 0.25 0.75 0
vt 0.25 0.875 0
vt 0.25 1 0
vt 0 0.75 0
vt 0.125 0.75 0
vt 0.1250000149011612 0.875 0
vt 0 0.875 0
vt 0.25 0.875 0
vt 0.375 0.75 0
vt 0.25 0.75 0
vt 0.25 0.875 0
vt 0.125 0.875 0
vt 0.5 0.75 0
vt 0.375 0.75 0
vt 0.375 0.875 0
vt 0.25 0.875 0
vt 0.9064496755599976 1 0
vt 0.9375 1 0
vt 0.90625429153442384 0.5 0
vt 0.90625429153442384 0.96872156858444208 0
vt 0.9375 1 0
vt 0.90625429153442384 0.5 0
vt 0.90625429153442384 0.96872156858444208 0
vt 0.9375 0.96872156858444208 0
vt 0.90625429153442384 0.96872156858444208 0
vt 0.9375 0.5 0
vt 0.9375 0.96872156858444208 0
vt 0.875 0.96872156858444208 0
vt 0.875 0.5 0
vt 0.96876001358032224 0.96872156858444208 0
vt 0.96876001358032224 0.5 0
vt 0.96874141693115232 1 0
vt 1 0.96872156858444208 0
vt 1 0.5 0
vt 0.96876001358032224 0.96872156858444208 0
vt 0.9375 0.96872156858444208 0
vt 0.96876001358032224 0.96872156858444208 0
vt 0.96876001358032224 0.5 0
vt 0.9375 0.96872156858444208 0
vt 0.9375 0.5 0
vt 0.9064496755599976 1 0
vt 0.9375 1 0
vt 0.90625429153442384 0.5 0
vt 0.90625429153442384 0.96872156858444208 0
vt 0.9375 1 0
vt 0.90625429153442384 0.5 0
vt 0.90625429153442384 0.96872156858444208 0
vt 0.9375 0.96872156858444208 0
vt 0.90625429153442384 0.96872156858444208 0
vt 0.9375 0.5 0
vt 0.9375 0.96872156858444208 0
vt 0.875 0.96872156858444208 0
vt 0.875 0.5 0
vt 0.96876001358032224 0.96872156858444208 0
vt 0.96876001358032224 0.5 0
vt 0.96874141693115232 1 0
vt 1 0.96872156858444208 0
vt 1 0.5 0
vt 0.96876001358032224 0.96872156858444208 0
vt 0.9375 0.96872156858444208 0
vt 0.96876001358032224 0.96872156858444208 0
vt 0.96876001358032224 0.5 0
vt 0.9375 0.96872156858444208 0
vt 0.9375 0.5 0
vt 0.9064496755599976 1 0
vt 0.9375 1 0
vt 0.90625429153442384 0.5 0
vt 0.90625429153442384 0.96872156858444208 0
vt 0.9375 1 0
vt 0.90625429153442384 0.5 0
vt 0.90625429153442384 0.96872156858444208 0
vt 0.9375 0.96872156858444208 0
vt 0.90625429153442384 0.96872156858444208 0
vt 0.9375 0.5 0
vt 0.9375 0.96872156858444208 0
vt 0.875 0.96872156858444208 0
vt 0.875 0.5 0
vt 0.96876001358032224 0.96872156858444208 0
vt 0.96876001358032224 0.5 0
vt 0.96874141693115232 1 0
vt 1 0.96872156858444208 0
vt 1 0.5 0
vt 0.96876001358032224 0.96872156858444208 0
vt 0.9375 0.96872156858444208 0
vt 0.96876001358032224 0.96872156858444208 0
vt 0.96876001358032224 0.5 0
vt 0.9375 0.96872156858444208 0
vt 0.9375 0.5 0
vt 0.9064496755599976 1 0
vt 0.9375 1 0
vt 0.90625429153442384 0.5 0
vt 0.90625429153442384 0.96872156858444208 0
vt 0.9375 1 0
vt 0.90625429153442384 0.5 0
vt 0.90625429153442384 0.96872156858444208 0
vt 0.9375 0.96872156858444208 0
vt 0.90625429153442384 0.96872156858444208 0
vt 0.9375 0.5 0
vt 0.9375 0.96872156858444208 0
vt 0.875 0.96872156858444208 0
vt 0.875 0.5 0
vt 0.96876001358032224 0.96872156858444208 0
vt 0.96876001358032224 0.5 0
vt 0.96874141693115232 1 0
vt 1 0.96872156858444208 0
vt 1 0.5 0
vt 0.96876001358032224 0.96872156858444208 0
vt 0.9375 0.96872156858444208 0
vt 0.96876001358032224 0.96872156858444208 0
vt 0.96876001358032224 0.5 0
vt 0.9375 0.96872156858444208 0
vt 0.9375 0.5 0
# 144 texture coords

g Enderman
usemtl 02 - Default
s 1
f 1/2/1 3/1/2 4/5/3 2/16/4
f 5/3/5 6/10/6 8/11/7 7/4/8
f 1/6/9 2/9/10 6/19/11 5/20/12
f 2/13/13 4/12/14 8/23/15 6/24/16
f 4/15/17 3/14/18 7/7/19 8/8/20
f 3/17/21 1/18/22 5/21/23 7/22/24
f 9/26/25 11/25/26 12/29/27 10/40/28
f 13/27/29 14/34/30 16/35/31 15/28/32
f 9/30/33 10/33/34 14/43/35 13/44/36
f 10/42/37 12/41/38 16/47/39 14/48/40
f 12/46/41 11/45/42 15/31/43 16/32/44
f 11/36/45 9/37/46 13/38/47 15/39/48
f 17/66/49 19/65/50 20/69/51 18/70/52
f 21/54/53 22/58/54 24/59/55 23/57/56
f 17/50/57 18/64/58 22/67/59 21/68/60
f 18/63/61 20/62/62 24/71/63 22/72/64
f 20/53/65 19/49/66 23/55/67 24/56/68
f 19/60/69 17/61/70 21/51/71 23/52/72
f 25/90/73 27/89/74 28/93/75 26/94/76
f 29/78/77 30/82/78 32/83/79 31/81/80
f 25/74/81 26/88/82 30/91/83 29/92/84
f 26/87/85 28/86/86 32/95/87 30/96/88
f 28/77/89 27/73/90 31/79/91 32/80/92
f 27/84/93 25/85/94 29/75/95 31/76/96
f 33/114/97 34/118/98 36/117/99 35/113/100
f 37/102/101 39/105/102 40/107/103 38/106/104
f 33/98/105 37/116/106 38/115/107 34/112/108
f 34/111/109 38/120/110 40/119/111 36/110/112
f 36/101/113 40/104/114 39/103/115 35/97/116
f 35/108/117 39/100/118 37/99/119 33/109/120
f 41/138/121 42/142/122 44/141/123 43/137/124
f 45/126/125 47/129/126 48/131/127 46/130/128
f 41/122/129 45/140/130 46/139/131 42/136/132
f 42/135/133 46/144/134 48/143/135 44/134/136
f 44/125/137 48/128/138 47/127/139 43/121/140
f 43/132/141 47/124/142 45/123/143 41/133/144
#36 polygons

