# Aspose.3D Wavefront OBJ Exporter
# Copyright 2004-2022 Aspose Pty Ltd.
# File created: 01/23/2023 15:26:57

mtllib material.lib

#
# object Box001
#

v -8 -7.9999987035988696 -8.00000130336537296
v 8 -7.9999987035988696 -8.00000130336537296
v -8 8.00000129640091728 -7.99999869663441472
v 8 8.00000129640091728 -7.99999869663441472
v -8 -8.00000131032982864 7.99999869663441296
v 8 -8.00000131032982864 7.99999869663441296
v -8 7.99999868966995824 8.00000130336537296
v 8 7.99999868966995824 8.00000130336537296
v -6.0000004768371582 -20.3073786572651258 -0.72808739586387536
v -4.0000004768371582 -20.3073786572651258 -0.72808739586387536
v -6.0000004768371582 -7.15168209164182844 4.06019666504330434
v -4.0000004768371582 -7.15168209164182844 4.06019666504330434
v -6.0000004768371582 -20.99141903303596016 1.1512979640358152
v -4.0000004768371582 -20.99141903303596016 1.1512979640358152
v -6.0000004768371582 -7.83572246741258736 5.9395815481058376
v -4.0000004768371582 -7.83572246741258736 5.9395815481058376
v -1.0000004768371582 -20.3073786572651258 -0.72808739586387536
v 0.99999952316284176 -20.3073786572651258 -0.72808739586387536
v -1.0000004768371582 -7.15168209164182844 4.06019666504330434
v 0.99999952316284176 -7.15168209164182844 4.06019666504330434
v -1.0000004768371582 -20.99141903303596016 1.1512979640358152
v 0.99999952316284176 -20.99141903303596016 1.1512979640358152
v -1.0000004768371582 -7.83572246741258736 5.9395815481058376
v 0.99999952316284176 -7.83572246741258736 5.9395815481058376
v 3.99999952316284176 -20.3073786572651258 -0.72808739586387536
v 5.99999952316284176 -20.3073786572651258 -0.72808739586387536
v 3.99999952316284176 -7.15168209164182844 4.06019666504330434
v 5.99999952316284176 -7.15168209164182844 4.06019666504330434
v 3.99999952316284176 -20.99141903303596016 1.1512979640358152
v 5.99999952316284176 -20.99141903303596016 1.1512979640358152
v 3.99999952316284176 -7.83572246741258736 5.9395815481058376
v 5.99999952316284176 -7.83572246741258736 5.9395815481058376
v 4 -20.30737893540675288 -10.72808834953836944
v 6 -20.30737893540675288 -10.72808834953836944
v 4 -7.15168141610906182 -5.93980476546819248
v 6 -7.15168141610906182 -5.93980476546819248
v 4 -20.9914193111775696 -8.84870310884796752
v 6 -20.9914193111775696 -8.84870310884796752
v 4 -7.83572179187989888 -4.06041940556849923
v 6 -7.83572179187989888 -4.06041940556849923
v -1 -20.30737893654066896 -10.72112843437723664
v 1 -20.30737893654066896 -10.72112843437723664
v -1 -7.15168141724297612 -5.93284485030705968
v 1 -7.15168141724297612 -5.93284485030705968
v -1 -20.9914193123114856 -8.84174319368683472
v 1 -20.9914193123114856 -8.84174319368683472
v -1 -7.83572179301381232 -4.05345949040736642
v 1 -7.83572179301381232 -4.05345949040736642
v -6 -20.30737893540675288 -10.72808834953836944
v -4 -20.30737893540675288 -10.72808834953836944
v -6 -7.15168141610906182 -5.93980476546819248
v -4 -7.15168141610906182 -5.93980476546819248
v -6 -20.9914193111775696 -8.84870310884796752
v -4 -20.9914193111775696 -8.84870310884796752
v -6 -7.83572179187989888 -4.06041940556849923
v -4 -7.83572179187989888 -4.06041940556849923
v -6.0000004768371582 -20.30737975001025576 -5.72808787270127776
v -4.0000004768371582 -20.30737975001025576 -5.72808787270127776
v -6.0000004768371582 -7.1516822307125647 -0.93980428863110096
v -4.0000004768371582 -7.1516822307125647 -0.93980428863110096
v -6.0000004768371582 -20.99142012578109376 -3.84870251280158544
v -4.0000004768371582 -20.99142012578109376 -3.84870251280158544
v -6.0000004768371582 -7.83572260648347904 0.93958154810575056
v -4.0000004768371582 -7.83572260648347904 0.93958154810575056
v 3.99999952316284176 -20.30737975001025576 -5.72808787270127776
v 5.99999952316284176 -20.30737975001025576 -5.72808787270127776
v 3.99999952316284176 -7.1516822307125647 -0.93980428863110096
v 5.99999952316284176 -7.1516822307125647 -0.93980428863110096
v 3.99999952316284176 -20.99142012578109376 -3.84870251280158544
v 5.99999952316284176 -20.99142012578109376 -3.84870251280158544
v 3.99999952316284176 -7.83572260648347904 0.93958154810575056
v 5.99999952316284176 -7.83572260648347904 0.93958154810575056
v -1.0000002384185791 -20.30737975001025576 -5.72808787270127776
v 0.99999976158142096 -20.30737975001025576 -5.72808787270127776
v -1.0000002384185791 -7.1516822307125647 -0.93980428863110096
v 0.99999976158142096 -7.1516822307125647 -0.93980428863110096
v -1.0000002384185791 -20.99142012578109376 -3.84870251280158544
v 0.99999976158142096 -20.99142012578109376 -3.84870251280158544
v -1.0000002384185791 -7.83572260648347904 0.93958154810575056
v 0.99999976158142096 -7.83572260648347904 0.93958154810575056
# 80 vertices

vn 0 1.6292068494294582E-07 -0.99999999999998672
vn 0 1.6292068494294582E-07 -0.99999999999998672
vn 0 1.6292068494294582E-07 -0.99999999999998672
vn 0 1.6292068494294582E-07 -0.99999999999998672
vn 0 -1.6292068494294582E-07 0.99999999999998672
vn 0 -1.6292068494294582E-07 0.99999999999998672
vn 0 -1.6292068494294582E-07 0.99999999999998672
vn 0 -1.6292068494294582E-07 0.99999999999998672
vn 0 -0.99999999999998672 -1.6292068494294582E-07
vn 0 -0.99999999999998672 -1.6292068494294582E-07
vn 0 -0.99999999999998672 -1.6292068494294582E-07
vn 0 -0.99999999999998672 -1.6292068494294582E-07
vn 1 0 0
vn 1 0 0
vn 1 0 0
vn 1 0 0
vn 0 0.99999999999998672 1.6292068494294582E-07
vn 0 0.99999999999998672 1.6292068494294582E-07
vn 0 0.99999999999998672 1.6292068494294582E-07
vn 0 0.99999999999998672 1.6292068494294582E-07
vn -1 0 0
vn -1 0 0
vn -1 0 0
vn -1 0 0
vn 0 0.3420203070946888 -0.93969256074053728
vn 0 0.3420203070946888 -0.93969256074053728
vn 0 0.3420203070946888 -0.93969256074053728
vn 0 0.3420203070946888 -0.93969256074053728
vn 0 -0.342020247490044 0.93969256074054704
vn 0 -0.342020247490044 0.93969256074054704
vn 0 -0.342020247490044 0.93969256074054704
vn 0 -0.342020247490044 0.93969256074054704
vn 0 -0.9396926203452064 -0.34202015808308656
vn 0 -0.9396926203452064 -0.34202015808308656
vn 0 -0.9396926203452064 -0.34202015808308656
vn 0 -0.9396926203452064 -0.34202015808308656
vn 1 0 0
vn 1 0 0
vn 1 0 0
vn 1 0 0
vn 0 0.93969262034519168 0.34202024749005372
vn 0 0.93969262034519168 0.34202024749005372
vn 0 0.93969262034519168 0.34202024749005372
vn 0 0.93969262034519168 0.34202024749005372
vn -1 0 0
vn -1 0 0
vn -1 0 0
vn -1 0 0
vn 0 0.3420203070946888 -0.93969256074053728
vn 0 0.3420203070946888 -0.93969256074053728
vn 0 0.3420203070946888 -0.93969256074053728
vn 0 0.3420203070946888 -0.93969256074053728
vn 0 -0.342020247490044 0.93969256074054704
vn 0 -0.342020247490044 0.93969256074054704
vn 0 -0.342020247490044 0.93969256074054704
vn 0 -0.342020247490044 0.93969256074054704
vn 0 -0.9396926203452064 -0.34202015808308656
vn 0 -0.9396926203452064 -0.34202015808308656
vn 0 -0.9396926203452064 -0.34202015808308656
vn 0 -0.9396926203452064 -0.34202015808308656
vn 1 0 0
vn 1 0 0
vn 1 0 0
vn 1 0 0
vn 0 0.93969262034519168 0.34202024749005372
vn 0 0.93969262034519168 0.34202024749005372
vn 0 0.93969262034519168 0.34202024749005372
vn 0 0.93969262034519168 0.34202024749005372
vn -1 0 0
vn -1 0 0
vn -1 0 0
vn -1 0 0
vn 0 0.3420203070946888 -0.93969256074053728
vn 0 0.3420203070946888 -0.93969256074053728
vn 0 0.3420203070946888 -0.93969256074053728
vn 0 0.3420203070946888 -0.93969256074053728
vn 0 -0.342020247490044 0.93969256074054704
vn 0 -0.342020247490044 0.93969256074054704
vn 0 -0.342020247490044 0.93969256074054704
vn 0 -0.342020247490044 0.93969256074054704
vn 0 -0.9396926203452064 -0.34202015808308656
vn 0 -0.9396926203452064 -0.34202015808308656
vn 0 -0.9396926203452064 -0.34202015808308656
vn 0 -0.9396926203452064 -0.34202015808308656
vn 1 0 0
vn 1 0 0
vn 1 0 0
vn 1 0 0
vn 0 0.93969262034519168 0.34202024749005372
vn 0 0.93969262034519168 0.34202024749005372
vn 0 0.93969262034519168 0.34202024749005372
vn 0 0.93969262034519168 0.34202024749005372
vn -1 0 0
vn -1 0 0
vn -1 0 0
vn -1 0 0
vn 0 0.34202021768773132 -0.93969262034519664
vn 0 0.34202021768773132 -0.93969262034519664
vn 0 0.34202021768773132 -0.93969262034519664
vn 0 0.34202021768773132 -0.93969262034519664
vn 0 -0.34202021768773132 0.93969262034519664
vn 0 -0.34202021768773132 0.93969262034519664
vn 0 -0.34202021768773132 0.93969262034519664
vn 0 -0.34202021768773132 0.93969262034519664
vn 0 -0.9396925607405616 -0.34202015808307684
vn 0 -0.9396925607405616 -0.34202015808307684
vn 0 -0.9396925607405616 -0.34202015808307684
vn 0 -0.9396925607405616 -0.34202015808307684
vn 1 0 0
vn 1 0 0
vn 1 0 0
vn 1 0 0
vn 0 0.9396926203452064 0.34202015808308656
vn 0 0.9396926203452064 0.34202015808308656
vn 0 0.9396926203452064 0.34202015808308656
vn 0 0.9396926203452064 0.34202015808308656
vn -1 0 0
vn -1 0 0
vn -1 0 0
vn -1 0 0
vn 0 0.34202021768773132 -0.93969262034519664
vn 0 0.34202021768773132 -0.93969262034519664
vn 0 0.34202021768773132 -0.93969262034519664
vn 0 0.34202021768773132 -0.93969262034519664
vn 0 -0.34202021768773132 0.93969262034519664
vn 0 -0.34202021768773132 0.93969262034519664
vn 0 -0.34202021768773132 0.93969262034519664
vn 0 -0.34202021768773132 0.93969262034519664
vn 0 -0.9396925607405616 -0.34202015808307684
vn 0 -0.9396925607405616 -0.34202015808307684
vn 0 -0.9396925607405616 -0.34202015808307684
vn 0 -0.9396925607405616 -0.34202015808307684
vn 1 0 0
vn 1 0 0
vn 1 0 0
vn 1 0 0
vn 0 0.9396926203452064 0.34202015808308656
vn 0 0.9396926203452064 0.34202015808308656
vn 0 0.9396926203452064 0.34202015808308656
vn 0 0.9396926203452064 0.34202015808308656
vn -1 0 0
vn -1 0 0
vn -1 0 0
vn -1 0 0
vn 0 0.34202021768773132 -0.93969262034519664
vn 0 0.34202021768773132 -0.93969262034519664
vn 0 0.34202021768773132 -0.93969262034519664
vn 0 0.34202021768773132 -0.93969262034519664
vn 0 -0.34202021768773132 0.93969262034519664
vn 0 -0.34202021768773132 0.93969262034519664
vn 0 -0.34202021768773132 0.93969262034519664
vn 0 -0.34202021768773132 0.93969262034519664
vn 0 -0.9396925607405616 -0.34202015808307684
vn 0 -0.9396925607405616 -0.34202015808307684
vn 0 -0.9396925607405616 -0.34202015808307684
vn 0 -0.9396925607405616 -0.34202015808307684
vn 1 0 0
vn 1 0 0
vn 1 0 0
vn 1 0 0
vn 0 0.9396926203452064 0.34202015808308656
vn 0 0.9396926203452064 0.34202015808308656
vn 0 0.9396926203452064 0.34202015808308656
vn 0 0.9396926203452064 0.34202015808308656
vn -1 0 0
vn -1 0 0
vn -1 0 0
vn -1 0 0
vn 0 0.34202021768773132 -0.93969262034519664
vn 0 0.34202021768773132 -0.93969262034519664
vn 0 0.34202021768773132 -0.93969262034519664
vn 0 0.34202021768773132 -0.93969262034519664
vn 0 -0.34202024749005372 0.93969262034519168
vn 0 -0.34202024749005372 0.93969262034519168
vn 0 -0.34202024749005372 0.93969262034519168
vn 0 -0.34202024749005372 0.93969262034519168
vn 0 -0.9396926203452064 -0.34202015808308656
vn 0 -0.9396926203452064 -0.34202015808308656
vn 0 -0.9396926203452064 -0.34202015808308656
vn 0 -0.9396926203452064 -0.34202015808308656
vn 1 0 0
vn 1 0 0
vn 1 0 0
vn 1 0 0
vn 0 0.93969262034522576 0.342020038873797
vn 0 0.93969262034522576 0.342020038873797
vn 0 0.93969262034522576 0.342020038873797
vn 0 0.93969262034522576 0.342020038873797
vn -0.9999999403953552 0 0
vn -1 0 0
vn -1 0 0
vn -1 0 0
vn 0 0.34202021768773132 -0.93969262034519664
vn 0 0.34202021768773132 -0.93969262034519664
vn 0 0.34202021768773132 -0.93969262034519664
vn 0 0.34202021768773132 -0.93969262034519664
vn 0 -0.34202024749005372 0.93969262034519168
vn 0 -0.34202024749005372 0.93969262034519168
vn 0 -0.34202024749005372 0.93969262034519168
vn 0 -0.34202024749005372 0.93969262034519168
vn 0 -0.9396926203452064 -0.34202015808308656
vn 0 -0.9396926203452064 -0.34202015808308656
vn 0 -0.9396926203452064 -0.34202015808308656
vn 0 -0.9396926203452064 -0.34202015808308656
vn 1 0 0
vn 1 0 0
vn 1 0 0
vn 1 0 0
vn 0 0.93969262034522576 0.342020038873797
vn 0 0.93969262034522576 0.342020038873797
vn 0 0.93969262034522576 0.342020038873797
vn 0 0.93969262034522576 0.342020038873797
vn -0.9999999403953552 0 0
vn -1 0 0
vn -1 0 0
vn -1 0 0
vn 0 0.34202021768773132 -0.93969262034519664
vn 0 0.34202021768773132 -0.93969262034519664
vn 0 0.34202021768773132 -0.93969262034519664
vn 0 0.34202021768773132 -0.93969262034519664
vn 0 -0.34202024749005372 0.93969262034519168
vn 0 -0.34202024749005372 0.93969262034519168
vn 0 -0.34202024749005372 0.93969262034519168
vn 0 -0.34202024749005372 0.93969262034519168
vn 0 -0.9396926203452064 -0.34202015808308656
vn 0 -0.9396926203452064 -0.34202015808308656
vn 0 -0.9396926203452064 -0.34202015808308656
vn 0 -0.9396926203452064 -0.34202015808308656
vn 1 0 0
vn 1 0 0
vn 1 0 0
vn 1 0 0
vn 0 0.93969262034522576 0.342020038873797
vn 0 0.93969262034522576 0.342020038873797
vn 0 0.93969262034522576 0.342020038873797
vn 0 0.93969262034522576 0.342020038873797
vn -0.9999999403953552 0 0
vn -1 0 0
vn -1 0 0
vn -1 0 0
# 240 vertex normals

vt 0.25 1 0
vt 0.5 1 0
vt 0.25 0.5 0
vt 0.25 0.75 0
vt 0.5 1 0
vt 0.25 0.5 0
vt 0.25 0.75 0
vt 0.5 0.75 0
vt 0.25 0.75 0
vt 0.5 0.5 0
vt 0.5 0.75 0
vt 0.75 0.75 0
vt 0.75 0.5 0
vt 0 0.75 0
vt 0 0.5 0
vt 0.75 1 0
vt 1 0.75 0
vt 1 0.5 0
vt 0.75 0.75 0
vt 0.5 0.75 0
vt 0.75 0.75 0
vt 0.75 0.5 0
vt 0.5 0.75 0
vt 0.5 0.5 0
vt 0.03142791241407394 1 0
vt 0.09389465302228928 0.9687209725379944 0
vt 0.03142790123820305 0.75 0
vt 0.03142790868878364 0.9687209725379944 0
vt 0.0625 1 0
vt 0.03142790123820305 0.75 0
vt 0.03142790868878364 0.9687209725379944 0
vt 0.0625000074505806 0.9687209725379944 0
vt 0.03142790868878364 0.9687209725379944 0
vt 0.0624999925494194 0.75 0
vt 0.0625 0.9687209725379944 0
vt 0.09389464557170868 0.9687209725379944 0
vt 0.09389463812112808 0.75 0
vt 7.450580596923828E-09 0.9687209725379944 0
vt 0 0.75 0
vt 0.09389464557170868 1 0
vt 0.125 0.9687209725379944 0
vt 0.1249999925494194 0.7499999403953552 0
vt 0.0625 1 0
vt 0.0625000074505806 0.9687209725379944 0
vt 0.09389465302228928 0.9687209725379944 0
vt 0.09389464557170868 0.7499999403953552 0
vt 0.0625000074505806 0.9687209725379944 0
vt 0.0625 0.75 0
vt 0.03142791241407394 1 0
vt 0.09389465302228928 0.9687209725379944 0
vt 0.03142790123820305 0.75 0
vt 0.03142790868878364 0.9687209725379944 0
vt 0.0625 1 0
vt 0.03142790123820305 0.75 0
vt 0.03142790868878364 0.9687209725379944 0
vt 0.0625000074505806 0.9687209725379944 0
vt 0.03142790868878364 0.9687209725379944 0
vt 0.0624999925494194 0.75 0
vt 0.0625 0.9687209725379944 0
vt 0.09389464557170868 0.9687209725379944 0
vt 0.09389463812112808 0.75 0
vt 7.450580596923828E-09 0.9687209725379944 0
vt 0 0.75 0
vt 0.09389464557170868 1 0
vt 0.125 0.9687209725379944 0
vt 0.1249999925494194 0.7499999403953552 0
vt 0.0625 1 0
vt 0.0625000074505806 0.9687209725379944 0
vt 0.09389465302228928 0.9687209725379944 0
vt 0.09389464557170868 0.7499999403953552 0
vt 0.0625000074505806 0.9687209725379944 0
vt 0.0625 0.75 0
vt 0.03142791241407394 1 0
vt 0.09389465302228928 0.9687209725379944 0
vt 0.03142790123820305 0.75 0
vt 0.03142790868878364 0.9687209725379944 0
vt 0.0625 1 0
vt 0.03142790123820305 0.75 0
vt 0.03142790868878364 0.9687209725379944 0
vt 0.0625000074505806 0.9687209725379944 0
vt 0.03142790868878364 0.9687209725379944 0
vt 0.0624999925494194 0.75 0
vt 0.0625 0.9687209725379944 0
vt 0.09389464557170868 0.9687209725379944 0
vt 0.09389463812112808 0.75 0
vt 7.450580596923828E-09 0.9687209725379944 0
vt 0 0.75 0
vt 0.09389464557170868 1 0
vt 0.125 0.9687209725379944 0
vt 0.1249999925494194 0.7499999403953552 0
vt 0.0625 1 0
vt 0.0625000074505806 0.9687209725379944 0
vt 0.09389465302228928 0.9687209725379944 0
vt 0.09389464557170868 0.7499999403953552 0
vt 0.0625000074505806 0.9687209725379944 0
vt 0.0625 0.75 0
vt 0.03142791241407394 1 0
vt 0.09389465302228928 0.9687209725379944 0
vt 0.03142790123820305 0.75 0
vt 0.03142790868878364 0.9687209725379944 0
vt 0.0625 1 0
vt 0.03142790123820305 0.75 0
vt 0.03142790868878364 0.9687209725379944 0
vt 0.0625000074505806 0.9687209725379944 0
vt 0.03142790868878364 0.9687209725379944 0
vt 0.0624999925494194 0.75 0
vt 0.0625 0.9687209725379944 0
vt 0.09389464557170868 0.9687209725379944 0
vt 0.09389463812112808 0.75 0
vt 7.450580596923828E-09 0.9687209725379944 0
vt 0 0.75 0
vt 0.09389464557170868 1 0
vt 0.125 0.9687209725379944 0
vt 0.1249999925494194 0.7499999403953552 0
vt 0.0625 1 0
vt 0.0625000074505806 0.9687209725379944 0
vt 0.09389465302228928 0.9687209725379944 0
vt 0.09389464557170868 0.7499999403953552 0
vt 0.0625000074505806 0.9687209725379944 0
vt 0.0625 0.75 0
vt 0.03142791241407394 1 0
vt 0.09389465302228928 0.9687209725379944 0
vt 0.03142790123820305 0.75 0
vt 0.03142790868878364 0.9687209725379944 0
vt 0.0625 1 0
vt 0.03142790123820305 0.75 0
vt 0.03142790868878364 0.9687209725379944 0
vt 0.0625000074505806 0.9687209725379944 0
vt 0.03142790868878364 0.9687209725379944 0
vt 0.0624999925494194 0.75 0
vt 0.0625 0.9687209725379944 0
vt 0.09389464557170868 0.9687209725379944 0
vt 0.09389463812112808 0.75 0
vt 7.450580596923828E-09 0.9687209725379944 0
vt 0 0.75 0
vt 0.09389464557170868 1 0
vt 0.125 0.9687209725379944 0
vt 0.1249999925494194 0.7499999403953552 0
vt 0.0625 1 0
vt 0.0625000074505806 0.9687209725379944 0
vt 0.09389465302228928 0.9687209725379944 0
vt 0.09389464557170868 0.7499999403953552 0
vt 0.0625000074505806 0.9687209725379944 0
vt 0.0625 0.75 0
vt 0.03142791241407394 1 0
vt 0.09389465302228928 0.9687209725379944 0
vt 0.03142790123820305 0.75 0
vt 0.03142790868878364 0.9687209725379944 0
vt 0.0625 1 0
vt 0.03142790123820305 0.75 0
vt 0.03142790868878364 0.9687209725379944 0
vt 0.0625000074505806 0.9687209725379944 0
vt 0.03142790868878364 0.9687209725379944 0
vt 0.0624999925494194 0.75 0
vt 0.0625 0.9687209725379944 0
vt 0.09389464557170868 0.9687209725379944 0
vt 0.09389463812112808 0.75 0
vt 7.450580596923828E-09 0.9687209725379944 0
vt 0 0.75 0
vt 0.09389464557170868 1 0
vt 0.125 0.9687209725379944 0
vt 0.1249999925494194 0.7499999403953552 0
vt 0.0625 1 0
vt 0.0625000074505806 0.9687209725379944 0
vt 0.09389465302228928 0.9687209725379944 0
vt 0.09389464557170868 0.7499999403953552 0
vt 0.0625000074505806 0.9687209725379944 0
vt 0.0625 0.75 0
vt 0.03142791241407394 1 0
vt 0.09389465302228928 0.9687209725379944 0
vt 0.03142790123820305 0.75 0
vt 0.03142790868878364 0.9687209725379944 0
vt 0.0625 1 0
vt 0.03142790123820305 0.75 0
vt 0.03142790868878364 0.9687209725379944 0
vt 0.0625000074505806 0.9687209725379944 0
vt 0.03142790868878364 0.9687209725379944 0
vt 0.0624999925494194 0.75 0
vt 0.0625 0.9687209725379944 0
vt 0.09389464557170868 0.9687209725379944 0
vt 0.09389463812112808 0.75 0
vt 7.450580596923828E-09 0.9687209725379944 0
vt 0 0.75 0
vt 0.09389464557170868 1 0
vt 0.125 0.9687209725379944 0
vt 0.1249999925494194 0.7499999403953552 0
vt 0.0625 1 0
vt 0.0625000074505806 0.9687209725379944 0
vt 0.09389465302228928 0.9687209725379944 0
vt 0.09389464557170868 0.7499999403953552 0
vt 0.0625000074505806 0.9687209725379944 0
vt 0.0625 0.75 0
vt 0.03142791241407394 1 0
vt 0.09389465302228928 0.9687209725379944 0
vt 0.03142790123820305 0.75 0
vt 0.03142790868878364 0.9687209725379944 0
vt 0.0625 1 0
vt 0.03142790123820305 0.75 0
vt 0.03142790868878364 0.9687209725379944 0
vt 0.0625000074505806 0.9687209725379944 0
vt 0.03142790868878364 0.9687209725379944 0
vt 0.0624999925494194 0.75 0
vt 0.0625 0.9687209725379944 0
vt 0.09389464557170868 0.9687209725379944 0
vt 0.09389463812112808 0.75 0
vt 7.450580596923828E-09 0.9687209725379944 0
vt 0 0.75 0
vt 0.09389464557170868 1 0
vt 0.125 0.9687209725379944 0
vt 0.1249999925494194 0.7499999403953552 0
vt 0.0625 1 0
vt 0.0625000074505806 0.9687209725379944 0
vt 0.09389465302228928 0.9687209725379944 0
vt 0.09389464557170868 0.7499999403953552 0
vt 0.0625000074505806 0.9687209725379944 0
vt 0.0625 0.75 0
vt 0.03142791241407394 1 0
vt 0.09389465302228928 0.9687209725379944 0
vt 0.03142790123820305 0.75 0
vt 0.03142790868878364 0.9687209725379944 0
vt 0.0625 1 0
vt 0.03142790123820305 0.75 0
vt 0.03142790868878364 0.9687209725379944 0
vt 0.0625000074505806 0.9687209725379944 0
vt 0.03142790868878364 0.9687209725379944 0
vt 0.0624999925494194 0.75 0
vt 0.0625 0.9687209725379944 0
vt 0.09389464557170868 0.9687209725379944 0
vt 0.09389463812112808 0.75 0
vt 7.450580596923828E-09 0.9687209725379944 0
vt 0 0.75 0
vt 0.09389464557170868 1 0
vt 0.125 0.9687209725379944 0
vt 0.1249999925494194 0.7499999403953552 0
vt 0.0625 1 0
vt 0.0625000074505806 0.9687209725379944 0
vt 0.09389465302228928 0.9687209725379944 0
vt 0.09389464557170868 0.7499999403953552 0
vt 0.0625000074505806 0.9687209725379944 0
vt 0.0625 0.75 0
# 240 texture coords

g Box001
usemtl 01 - Default
s 1
f 1/18/1 3/17/2 4/21/3 2/22/4
f 5/6/5 6/10/6 8/11/7 7/9/8
f 1/2/9 2/16/10 6/19/11 5/20/12
f 2/13/13 4/12/14 8/23/15 6/24/16
f 4/5/17 3/1/18 7/7/19 8/8/20
f 3/14/21 1/15/22 5/3/23 7/4/24
f 9/42/25 11/41/26 12/45/27 10/46/28
f 13/30/29 14/34/30 16/35/31 15/33/32
f 9/26/33 10/40/34 14/43/35 13/44/36
f 10/37/37 12/36/38 16/47/39 14/48/40
f 12/29/41 11/25/42 15/31/43 16/32/44
f 11/38/45 9/39/46 13/27/47 15/28/48
f 17/66/49 19/65/50 20/69/51 18/70/52
f 21/54/53 22/58/54 24/59/55 23/57/56
f 17/50/57 18/64/58 22/67/59 21/68/60
f 18/61/61 20/60/62 24/71/63 22/72/64
f 20/53/65 19/49/66 23/55/67 24/56/68
f 19/62/69 17/63/70 21/51/71 23/52/72
f 25/90/73 27/89/74 28/93/75 26/94/76
f 29/78/77 30/82/78 32/83/79 31/81/80
f 25/74/81 26/88/82 30/91/83 29/92/84
f 26/85/85 28/84/86 32/95/87 30/96/88
f 28/77/89 27/73/90 31/79/91 32/80/92
f 27/86/93 25/87/94 29/75/95 31/76/96
f 33/114/97 35/113/98 36/117/99 34/118/100
f 37/102/101 38/106/102 40/107/103 39/105/104
f 33/98/105 34/112/106 38/115/107 37/116/108
f 34/109/109 36/108/110 40/119/111 38/120/112
f 36/101/113 35/97/114 39/103/115 40/104/116
f 35/110/117 33/111/118 37/99/119 39/100/120
f 41/138/121 43/137/122 44/141/123 42/142/124
f 45/126/125 46/130/126 48/131/127 47/129/128
f 41/122/129 42/136/130 46/139/131 45/140/132
f 42/133/133 44/132/134 48/143/135 46/144/136
f 44/125/137 43/121/138 47/127/139 48/128/140
f 43/134/141 41/135/142 45/123/143 47/124/144
f 49/162/145 51/161/146 52/165/147 50/166/148
f 53/150/149 54/154/150 56/155/151 55/153/152
f 49/146/153 50/160/154 54/163/155 53/164/156
f 50/157/157 52/156/158 56/167/159 54/168/160
f 52/149/161 51/145/162 55/151/163 56/152/164
f 51/158/165 49/159/166 53/147/167 55/148/168
f 57/186/169 59/185/170 60/189/171 58/190/172
f 61/174/173 62/178/174 64/179/175 63/177/176
f 57/170/177 58/184/178 62/187/179 61/188/180
f 58/181/181 60/180/182 64/191/183 62/192/184
f 60/173/185 59/169/186 63/175/187 64/176/188
f 59/182/189 57/183/190 61/171/191 63/172/192
f 65/210/193 67/209/194 68/213/195 66/214/196
f 69/198/197 70/202/198 72/203/199 71/201/200
f 65/194/201 66/208/202 70/211/203 69/212/204
f 66/205/205 68/204/206 72/215/207 70/216/208
f 68/197/209 67/193/210 71/199/211 72/200/212
f 67/206/213 65/207/214 69/195/215 71/196/216
f 73/234/217 75/233/218 76/237/219 74/238/220
f 77/222/221 78/226/222 80/227/223 79/225/224
f 73/218/225 74/232/226 78/235/227 77/236/228
f 74/229/229 76/228/230 80/239/231 78/240/232
f 76/221/233 75/217/234 79/223/235 80/224/236
f 75/230/237 73/231/238 77/219/239 79/220/240
#60 polygons

